<svg width="36" height="18" viewBox="0 0 36 18" fill="none" xmlns="http://www.w3.org/2000/svg">
<path d="M6.27 17.242C4.96467 17.242 3.828 17.044 2.86 16.648C1.90667 16.252 1.034 15.6287 0.242 14.778L2.728 12.27C3.27067 12.842 3.85 13.282 4.466 13.59C5.082 13.8833 5.77867 14.03 6.556 14.03C7.216 14.03 7.722 13.92 8.074 13.7C8.44067 13.4653 8.624 13.15 8.624 12.754C8.624 12.3873 8.492 12.0867 8.228 11.852C7.964 11.6027 7.612 11.39 7.172 11.214C6.74667 11.0233 6.27 10.8473 5.742 10.686C5.22867 10.51 4.708 10.3047 4.18 10.07C3.66667 9.82067 3.19 9.52 2.75 9.168C2.32467 8.816 1.98 8.376 1.716 7.848C1.452 7.32 1.32 6.66733 1.32 5.89C1.32 4.89267 1.55467 4.042 2.024 3.338C2.508 2.634 3.17533 2.09133 4.026 1.71C4.87667 1.32867 5.86667 1.138 6.996 1.138C8.12533 1.138 9.16667 1.32867 10.12 1.71C11.0733 2.09133 11.858 2.61933 12.474 3.294L9.966 5.78C9.49667 5.31067 9.02 4.95867 8.536 4.724C8.052 4.48933 7.524 4.372 6.952 4.372C6.40933 4.372 5.984 4.46733 5.676 4.658C5.368 4.84867 5.214 5.12 5.214 5.472C5.214 5.824 5.346 6.11 5.61 6.33C5.874 6.55 6.21867 6.748 6.644 6.924C7.084 7.08533 7.56067 7.254 8.074 7.43C8.602 7.606 9.12267 7.81133 9.636 8.046C10.1493 8.28067 10.6187 8.58133 11.044 8.948C11.484 9.31467 11.836 9.77667 12.1 10.334C12.364 10.8913 12.496 11.566 12.496 12.358C12.496 13.9127 11.946 15.1153 10.846 15.966C9.76067 16.8167 8.23533 17.242 6.27 17.242ZM14.2055 17V6.242H18.0555V17H14.2055ZM16.1195 4.988C15.5475 4.988 15.0708 4.79733 14.6895 4.416C14.3081 4.02 14.1175 3.52867 14.1175 2.942C14.1175 2.37 14.3081 1.886 14.6895 1.49C15.0708 1.094 15.5475 0.895999 16.1195 0.895999C16.7208 0.895999 17.2048 1.094 17.5715 1.49C17.9528 1.886 18.1435 2.37 18.1435 2.942C18.1435 3.52867 17.9528 4.02 17.5715 4.416C17.2048 4.79733 16.7208 4.988 16.1195 4.988ZM23.2121 17V13.612H26.9521C27.8321 13.612 28.5947 13.4433 29.2401 13.106C29.9001 12.7687 30.4061 12.27 30.7581 11.61C31.1101 10.9353 31.2861 10.1213 31.2861 9.168C31.2861 8.22933 31.1027 7.43733 30.7361 6.792C30.3841 6.132 29.8854 5.63333 29.2401 5.296C28.5947 4.95867 27.8321 4.79 26.9521 4.79H23.0361V1.402H26.9741C28.1767 1.402 29.2841 1.59267 30.2961 1.974C31.3081 2.34067 32.1881 2.86867 32.9361 3.558C33.6841 4.24733 34.2634 5.06867 34.6741 6.022C35.0994 6.97533 35.3121 8.03133 35.3121 9.19C35.3121 10.3633 35.0994 11.4267 34.6741 12.38C34.2634 13.3333 33.6841 14.1547 32.9361 14.844C32.1881 15.5333 31.3081 16.0687 30.2961 16.45C29.2987 16.8167 28.2061 17 27.0181 17H23.2121ZM20.5501 17V1.402H24.4881V17H20.5501Z" fill="#8080D7"/>
</svg>
